<svg width="21" height="23" viewBox="0 0 21 23" fill="none" xmlns="http://www.w3.org/2000/svg">
<path d="M14.6678 0.449523C14.5196 0.529845 14.4195 0.635532 14.1935 0.95682C12.9521 2.71545 10.862 4.73618 7.92331 7.01056L7.24515 7.53899L7.46379 8.24498C7.58237 8.6339 7.94925 9.82605 8.27906 10.8956C8.60888 11.9651 8.95351 13.0854 9.04616 13.3898L9.21663 13.9394L10.0171 13.8675C11.5624 13.7365 12.4629 13.6942 13.8563 13.6942C15.7092 13.6942 16.9617 13.8041 18.0142 14.0704C18.255 14.1296 18.5293 14.1888 18.6219 14.2015C18.8665 14.2353 19.1259 14.1254 19.3149 13.914C19.515 13.6857 19.5965 13.4448 19.5743 13.1277C19.5632 12.9459 19.0851 11.3479 17.714 6.90064C16.6986 3.61167 15.8463 0.876498 15.8203 0.825768C15.5758 0.394567 15.0792 0.229695 14.6678 0.449523Z" fill="#FFD542"/>
<path d="M17.5546 3.48523C17.6436 3.77269 18.1475 5.40873 18.6775 7.12085C19.2037 8.8372 19.6484 10.2407 19.6632 10.2407C19.7114 10.2407 19.8707 9.84334 19.9967 9.42482C20.0968 9.09085 20.1153 8.9598 20.1301 8.4821C20.1413 8.14813 20.1301 7.80993 20.1042 7.64083C20.0634 7.38718 19.4742 5.38759 19.3038 4.93525C19.0443 4.24617 18.4144 3.50636 17.7844 3.14703C17.3582 2.90606 17.373 2.88915 17.5546 3.48523Z" fill="#FFD542"/>
<path d="M5.55529 7.81373C5.41447 7.89828 4.75484 8.29143 4.0915 8.68881C1.35663 10.3206 1.53451 10.2065 1.43816 10.4178C1.37146 10.5658 1.37146 10.756 1.44187 10.9463C1.47151 11.0266 1.49745 11.1027 1.49745 11.1069C1.49745 11.1112 1.37146 11.1703 1.21952 11.2337C0.863764 11.3817 0.719238 11.5508 0.719238 11.8256C0.719238 11.9566 0.863764 12.4851 1.20099 13.5884C1.63457 15.0047 1.69757 15.178 1.81244 15.3006C1.92362 15.4189 1.96809 15.4401 2.12744 15.4401C2.22749 15.4401 2.39796 15.402 2.50543 15.3555C2.61289 15.309 2.72036 15.271 2.73889 15.271C2.76113 15.271 2.8056 15.364 2.84265 15.4781C2.95753 15.8544 3.17247 15.9431 3.7024 15.8459L3.88768 15.8121L4.1545 16.4209C5.02536 18.3909 6.10004 20.1706 7.01537 21.1556C7.71576 21.9081 8.34574 22.2928 9.03873 22.3943C9.15731 22.4112 9.37966 22.39 9.665 22.3309C11.2066 22.0307 12.0812 21.2021 11.7625 20.3524C11.6031 19.9339 11.1955 19.6253 10.547 19.4308C9.94664 19.2533 9.61312 19.118 9.16472 18.877L8.73485 18.6445L8.71262 18.4416C8.64591 17.8075 7.9307 16.5984 7.46747 16.3405C7.27848 16.2391 6.89678 16.2222 6.53732 16.3025C6.30386 16.3574 6.22233 16.3617 6.18157 16.3236C6.09633 16.2433 5.61088 15.5035 5.61088 15.4528C5.61088 15.4316 6.05557 15.3133 6.60403 15.1907C8.09375 14.8609 8.07522 14.8651 8.24569 14.6834C8.36798 14.5439 8.39021 14.4974 8.39021 14.3409C8.39021 14.2141 8.10487 13.2376 7.42671 11.0266C6.3335 7.47976 6.41132 7.66154 6.02592 7.66154C5.85546 7.66154 5.76281 7.69113 5.55529 7.81373ZM4.68813 10.1684C4.86601 10.2995 4.99571 10.6123 4.96236 10.8279C4.91048 11.1872 4.66219 11.424 4.3472 11.424C4.0285 11.424 3.75798 11.1112 3.75798 10.7476C3.75798 10.2234 4.31014 9.88096 4.68813 10.1684ZM6.96349 11.4874C7.01537 11.5424 7.05613 11.6354 7.05613 11.6945C7.05613 11.9397 6.98572 11.9736 4.9846 12.7768C3.93586 13.1953 3.03535 13.5377 2.99088 13.5377C2.87601 13.5377 2.72036 13.3559 2.72036 13.2249C2.72036 12.9797 2.78707 12.9416 4.77707 12.1427C5.8184 11.7284 6.7152 11.3859 6.77079 11.3859C6.83378 11.3817 6.91161 11.424 6.96349 11.4874ZM7.31183 12.7979C7.486 12.8994 7.52306 13.1657 7.38224 13.3137C7.33406 13.3602 7.03019 13.5039 6.70408 13.635C6.37797 13.7618 5.51082 14.1084 4.78078 14.4001C3.90251 14.751 3.42446 14.9243 3.37258 14.9074C3.16135 14.8356 3.08353 14.5227 3.24288 14.3578C3.30217 14.2944 7.05984 12.7472 7.17842 12.7387C7.19325 12.7345 7.25624 12.7641 7.31183 12.7979Z" fill="#FFD542"/>
</svg>
