<svg width="240" height="240" viewBox="0 0 240 240" fill="none" xmlns="http://www.w3.org/2000/svg">
<path d="M21.3333 3.46666C15.3333 6.13332 11.0666 10.1333 7.86659 16.2667C5.46659 20.9333 5.33325 25.2 5.33325 102.8V184.4L8.66659 190.267C10.9333 194.133 14.3999 197.333 19.0666 200L25.9999 204H83.3333C140.267 204 140.8 204 146.267 201.067C152.8 197.467 159.467 189.467 161.467 182.8C162.4 179.6 162.667 152.8 162.4 100L162 22L158.667 16.1333C156.8 12.9333 153.067 8.39999 150.267 6.13332L145.067 1.99999L85.5999 1.73332C34.3999 1.46666 25.3333 1.73332 21.3333 3.46666ZM141.2 22.1333C144 25.6 144 26.8 144 102.533C143.867 168.933 143.6 179.733 141.867 182C140 184.533 137.867 184.667 106.933 185.333C62.6666 186.267 27.3333 185.2 25.0666 182.933C23.7333 181.6 23.1999 165.6 22.9333 106.933C22.6666 66.1333 22.9333 30.6667 23.3333 28.2667C23.7333 25.8667 25.3333 22.6667 26.7999 21.2C29.1999 18.8 31.5999 18.6667 83.8666 18.6667H138.533L141.2 22.1333Z" fill="white"/>
<path d="M112.667 40.9333C110.667 47.3333 108.8 53.0667 108.4 53.7333C108.133 54.2667 108.8 55.0667 110.133 55.6C111.733 56.1333 113.2 55.3333 114.933 52.9333C118.4 48.2667 123.6 48.1333 125.333 52.6667C126.133 54.6667 127.6 56 129.2 56C131.467 56 131.733 55.3333 131.067 51.3333C130.667 48.6667 128.933 42.8 127.333 38.2667C124.667 30.8 123.867 30 120.267 29.6C116.4 29.2 116.267 29.3333 112.667 40.9333ZM122.4 41.0667C122.667 42.8 122 44.4 120.667 44.8C117.733 46 117.067 44.9333 118.133 40.8C119.067 36.6667 121.867 36.9333 122.4 41.0667Z" fill="white"/>
<path d="M77.6 62.1333C68.9333 67.8667 55.7333 81.2 49.8667 90C42.2667 101.467 41.6 112.267 48 120.4C53.4667 127.333 67.7333 128.4 75.3333 122.4C77.2 120.933 79.0667 120 79.4667 120.267C80.2667 121.2 76.9333 133.867 74.1333 140.533C72.9333 143.333 72 145.867 72 146.133C72 146.4 77.3333 146.667 83.8667 146.667H95.7333L92.4 137.6C85.7333 119.467 85.7333 118.533 92.9333 123.467C102.667 130 116.4 126 121.333 115.333C124.8 107.733 124.667 104.267 120.667 95.7333C117.467 88.9333 103.333 73.0667 93.3333 64.8C90.8 62.6667 87.7333 60.1333 86.5333 59.2C84.8 57.6 83.4667 58.1333 77.6 62.1333Z" fill="white"/>
<path d="M34.6665 150.933C34.6665 151.867 36.5332 157.733 38.6665 164C40.7998 170.267 42.6665 175.467 42.6665 175.6C42.6665 175.867 44.2665 176 46.3998 176C49.7332 176 50.2665 175.2 53.8665 164C55.8665 157.467 57.5998 151.6 57.4665 151.067C57.4665 150.533 56.2665 149.867 54.9332 149.6C53.1998 149.333 52.1332 150.133 51.5998 151.867C50.6665 155.867 41.8665 155.867 40.6665 152C39.7332 149.067 34.6665 148.267 34.6665 150.933ZM48.7998 163.2C48.3998 164.667 47.9998 166.8 47.9998 167.6C47.9998 170.933 45.4665 169.2 44.6665 165.333C43.5998 160.667 44.6665 158.533 47.4665 159.6C48.7998 160.133 49.3332 161.333 48.7998 163.2Z" fill="white"/>
<path d="M172 40V48.8L179.733 51.2C183.867 52.5333 192.533 55.0667 199.067 56.6667C212.667 60.2667 217.333 62.9333 217.333 67.0667C217.333 68.6667 215.2 78.4 212.533 88.6667C209.867 98.9333 206.933 110.667 206 114.667C205.067 118.667 203.467 125.333 202.267 129.333C201.067 133.333 198.267 143.867 195.867 152.667C193.6 161.467 190 174.4 187.867 181.6C185.733 188.667 184 195.467 184 196.933C183.867 202.133 177.333 218 174.667 219.867C171.6 221.867 165.333 221.067 149.333 216.667C143.467 215.067 135.2 214.667 108 214.933L74 215.333L88 218.933C95.7333 220.933 107.333 224.133 113.867 226C128.667 230.4 164.133 238.8 171.467 239.6C178.267 240.4 186.4 236.533 191.2 230.267C194.8 225.6 199.467 210 212.667 158.667C220.4 128.533 226.533 105.467 229.333 96C233.867 80.4 234.667 76.4 234.667 68.5333C234.533 64 233.6 58.6667 232.267 56C229.333 49.8667 219.733 43.6 209.2 40.8C204.533 39.6 194.267 36.9333 186.4 34.8L172 31.0667V40Z" fill="white"/>
<path d="M183.733 76.2667C179.867 82.4 176.533 87.7333 176.267 88.2667C175.333 90.4 181.733 89.3333 183.333 87.2C185.6 84.1333 192.533 86.4 193.067 90.4C193.333 92.2667 194.533 93.3333 196.133 93.3333C198.4 93.3333 198.667 92.2667 198.667 80.6667C198.667 69.6 198.4 67.8667 196.133 66.6667C194.667 66 192.933 65.3333 192.267 65.3333C191.467 65.3333 187.733 70.2667 183.733 76.2667ZM193.333 77.3333C193.333 81.4667 190.8 83.7333 188.133 82C186.4 81.0667 190 73.3333 192 73.3333C192.8 73.3333 193.333 75.2 193.333 77.3333Z" fill="white"/>
</svg>
