<svg width="240" height="240" viewBox="0 0 240 240" fill="none" xmlns="http://www.w3.org/2000/svg">
<path d="M41.3333 8.93333C38.2666 9.99999 33.3333 14.9333 33.3333 16.8C33.3333 17.6 35.4666 21.4667 38.1333 25.2C45.9999 36.8 65.3333 69.6 65.3333 71.6C65.3333 76.2667 73.7333 75.2 79.0666 69.8667L82.6666 66.4L79.1999 62.2667C77.3333 60.1333 74.6666 55.8667 73.0666 52.8C71.5999 49.8667 68.1333 44 65.3333 40C62.6666 36 57.8666 27.8667 54.6666 22C46.6666 7.06666 46.5333 7.06666 41.3333 8.93333Z" fill="white"/>
<path d="M93.8666 32.6667C93.3333 33.8667 91.3333 34.6667 88.5333 34.6667C82.6666 34.6667 81.3333 37.4667 81.3333 48.9333C81.3333 59.8667 83.7333 64.4 89.0666 63.7333C92.6666 63.3333 92.6666 63.2 93.3333 50.6667L93.9999 38H100.667H107.333L108 56L108.667 74L114 82.6667L119.333 91.3333L120 64.6667L120.667 38H127.333L134 38.1333L134.667 78L135.333 118L138.933 124C147.067 137.867 146.667 140.4 146.267 85.3333L146 35.3333L140.667 34.9333C137.733 34.6667 134.8 33.6 134.267 32.5333C132.667 29.6 121.2 30 120.4 33.0667C120 34.9333 118.8 35.3333 114.267 34.9333C111.2 34.5333 108.133 33.4667 107.6 32.5333C106.133 29.8667 94.7999 30 93.8666 32.6667Z" fill="white"/>
<path d="M92.3998 66.2667C90.6665 66.5334 89.3332 67.3334 89.3332 68C89.3332 68.6667 93.8665 79.8667 99.3332 92.9334C104.933 106 111.6 121.6 114.133 127.733C118.667 138.533 119.467 142.267 116.667 140.267C115.867 139.733 105.067 127.067 92.6665 112C80.3998 96.9334 69.4665 83.7334 68.3998 82.6667C66.9332 81.0667 66.1332 81.3334 62.6665 84.6667C60.5332 86.8 58.6665 89.2 58.6665 90C58.6665 90.8 67.8665 106.8 79.0665 125.467C90.2665 144.133 108.933 175.2 120.667 194.4C134.533 217.6 142.933 230.133 144.933 231.067C153.467 234.933 184 216.8 184 207.867C184 206 165.6 174 142.267 135.333C99.0665 63.4667 99.9998 64.6667 92.3998 66.2667Z" fill="white"/>
<path d="M82.5332 71.4667C81.5999 72.5333 78.2665 74.8 75.1999 76.4L69.5999 79.3333L89.5999 103.733C100.533 117.2 109.867 127.867 110.133 127.6C110.933 126.8 86.3999 69.3333 85.1999 69.3333C84.7999 69.3333 83.5999 70.2667 82.5332 71.4667Z" fill="white"/>
<path d="M171.333 117.6C169.866 118.4 168.4 119.2 168.266 119.467C168 119.6 172.8 124.8 178.933 130.933C185.6 137.6 191.6 145.067 194 149.6C196.133 153.733 198.4 156.8 198.933 156.533C199.6 156.133 201.2 153.467 202.666 150.667C208.933 138.4 203.466 123.2 191.066 117.867C185.866 115.6 175.066 115.467 171.333 117.6Z" fill="white"/>
<path d="M159.6 128.667C156.8 134.4 156.667 145.467 159.2 150.4C161.733 155.2 167.867 160.8 172.4 162.533C180.267 165.6 193.333 163.333 193.333 159.067C193.333 156.533 190 150.133 184.4 142.4C179.467 135.6 166.267 124 163.467 124C162.533 124 160.8 126.133 159.6 128.667Z" fill="white"/>
<path d="M81.3333 174.533C81.3333 195.067 81.7333 212.667 82.1333 213.867C82.6666 215.333 84.6666 216 88.1333 216H93.3333V185.467V155.067L88.3999 146.267C85.5999 141.333 82.9333 137.333 82.3999 137.333C81.7333 137.333 81.3333 154.133 81.3333 174.533Z" fill="white"/>
<path d="M108.267 198.267L108.667 215.333L114.4 215.733L120 216.133V207.867C120 200.933 119.333 198.267 115.333 191.2C112.667 186.533 110 182.4 109.2 182C108.4 181.467 108 187.067 108.267 198.267Z" fill="white"/>
</svg>
