<svg width="288" height="240" viewBox="0 0 288 240" fill="none" xmlns="http://www.w3.org/2000/svg">
<path d="M124.933 46.8C114.133 48.4 108 50.2667 103.333 53.3333C101.2 54.8 98.3999 56.5333 97.3332 57.2C96.2666 58 88.9332 60.9333 81.0666 63.7333C72.2666 67.0667 62.7999 71.7333 56.3999 76.1333C32.7999 92.1333 6.39991 116 4.66657 122.933C3.59991 127.2 10.7999 136.4 24.9332 148.8C45.4666 166.933 58.9332 175.6 80.6666 184.533C86.1332 186.8 110.267 192 115.467 192C117.067 192 121.6 193.467 125.6 195.333C132 198.267 134.933 198.667 150.933 198.933C160.933 199.2 169.467 198.933 170.133 198.4C170.667 197.867 170 194.8 168.8 191.6C165.733 183.333 166 182.267 173.067 179.067C183.733 174.133 203.067 160.667 213.733 150.533C223.067 141.867 224.267 141.2 226.4 142.933C227.6 144 238.267 153.2 249.867 163.333L271.067 181.867L275.067 177.2C277.2 174.8 280.133 170.133 281.467 167.067C284.4 160.8 286.133 146.267 284.8 140.8C284 137.733 278.933 132 272.667 127.467C270.4 125.867 270.667 125.467 275.2 122.267C278 120.4 281.467 117.067 282.8 114.8C286.133 109.2 286.133 97.4667 282.667 88C280 80.5333 273.467 71.3333 270.933 71.3333C269.6 71.3333 255.6 83.3333 232.933 103.867L225.067 110.933L216.8 102.933C206.667 93.0667 182.667 75.6 175.733 72.9333C172.533 71.7333 172.667 69.7333 177.333 58.2667C179.6 52.6667 181.333 47.6 181.333 46.8C181.333 45.0667 136.8 45.0667 124.933 46.8ZM142.533 71.4667C162.133 77.2 182.267 88.8 202.8 106.267C214.933 116.533 217.2 121.067 214.8 130.4C213.467 135.067 211.333 137.467 201.467 145.6C191.2 154.133 177.2 163.333 163.333 170.8C161.067 172 154.133 174.667 148 176.8C138.4 180 134.533 180.533 122.667 180.4C108.933 180.4 87.9999 176.533 84.9332 173.467C84.2666 172.8 85.5999 168.533 88.3999 162.533C95.8666 146.933 97.8666 137.867 96.9332 124.267C95.8666 110.533 93.1999 99.6 87.8666 88.5333C85.7332 84 83.9999 80 83.9999 79.4667C83.9999 76.6667 100.133 72.1333 115.333 70.6667C132.267 69.2 135.067 69.2 142.533 71.4667ZM76.7999 93.8667C83.0666 107.6 84.5332 115.467 83.5999 131.2C82.7999 143.2 82.2666 145.467 77.1999 155.467C74.2666 161.6 71.1999 166.667 70.3999 166.667C68.5332 166.667 47.3332 151.467 37.9999 143.467C24.9332 132.267 19.9999 127.2 19.9999 125.067C19.9999 121.333 64.3999 84.2667 69.0666 84.1333C71.5999 84 72.9332 85.6 76.7999 93.8667Z" fill="white"/>
<path d="M114.667 78.5333C112.533 82.6667 113.067 84.8 116.667 86.6667C120.8 88.9333 121.067 94 117.2 98.1333C113.867 101.733 114.533 104.8 119.2 106.933C123.6 108.8 128 106 131.333 99.2C134.667 92 133.333 85.7333 127.2 80.2667C121.6 75.4667 116.8 74.8 114.667 78.5333Z" fill="white"/>
<path d="M140.8 94.9333C137.867 99.0667 138.133 100.4 142.667 104.533C146 107.467 146.533 108.533 145.333 110.667C144.667 112 143.333 113.6 142.667 114C141.867 114.4 141.333 116.533 141.333 118.667C141.333 121.733 142 122.8 144.8 123.467C146.667 124 149.6 123.733 151.2 122.933C154.533 121.467 158.667 113.867 158.667 109.467C158.667 104.133 154.933 97.4667 150.4 94.6667C144.8 91.3333 143.333 91.3333 140.8 94.9333Z" fill="white"/>
<path d="M114.667 111.867C112.667 115.733 112.933 117.067 116.667 120.267C120.4 123.467 121.067 128.933 118 130.133C116.933 130.533 115.733 132.133 115.333 133.467C113.067 140.267 124.4 142.667 129.2 136.4C135.067 129.067 134.4 120 127.733 113.467C122.8 108.667 116.8 107.867 114.667 111.867Z" fill="white"/>
<path d="M165.6 110.933C162.933 113.6 163.733 118.267 167.333 120.533C171.067 123.067 171.733 128.133 168.667 130.667C166.267 132.667 166 137.467 168.267 139.733C171.067 142.533 175.6 141.467 179.2 137.2C185.333 129.867 183.467 115.2 175.867 111.2C171.333 108.933 167.733 108.8 165.6 110.933Z" fill="white"/>
<path d="M140.267 128.267C137.733 130.8 138.4 133.333 142.667 137.333C146.133 140.533 146.533 141.6 145.333 144.533C144.667 146.4 143.467 148 142.667 148C141.733 148 141.333 149.867 141.6 152.267C142.4 160.8 152.933 158.4 156.667 148.933C159.333 142.133 158.4 136.133 153.867 130.667C150.133 126.4 143.333 125.2 140.267 128.267Z" fill="white"/>
<path d="M116.4 143.733C115.6 144.267 114.533 146.267 114 148.267C113.2 151.067 113.733 152.267 116.533 154C120.667 156.8 121.067 161.333 117.333 164.667C114 167.6 114 169.6 117.067 172.4C121.2 176.133 124.933 175.2 129.333 169.067C135.6 160.4 133.867 150.667 124.933 145.333C120.267 142.4 118.8 142.133 116.4 143.733Z" fill="white"/>
<path d="M55.0667 112.667C48.6667 115.467 45.7333 122.267 47.8667 129.333C51.8667 142.667 70.5333 142.4 73.7333 128.933C75.3333 122.267 74.1333 118 69.6 114.8C64.2667 111.067 60 110.4 55.0667 112.667Z" fill="white"/>
</svg>
