<svg width="65" height="65" viewBox="0 0 65 65" fill="none" xmlns="http://www.w3.org/2000/svg">
<circle cx="32.5" cy="32.5" r="32.5" fill="white"/>
<path d="M43.5467 27.4116L34.7108 20.3479C33.3465 19.2514 31.1407 19.2514 29.7892 20.3352L20.9532 27.4116C19.9587 28.2021 19.3212 29.8723 19.5379 31.1218L21.2337 41.2711C21.5397 43.0816 23.2738 44.5479 25.1098 44.5479H39.3901C41.2134 44.5479 42.9602 43.0689 43.2662 41.2711L44.962 31.1218C45.166 29.8723 44.5285 28.2021 43.5467 27.4116ZM32.25 36.5025C30.4904 36.5025 29.0624 35.0744 29.0624 33.3149C29.0624 31.5554 30.4904 30.1273 32.25 30.1273C34.0095 30.1273 35.4375 31.5554 35.4375 33.3149C35.4375 35.0744 34.0095 36.5025 32.25 36.5025Z" fill="#7C7C7C"/>
</svg>
