<svg width="18" height="18" viewBox="0 0 18 18" fill="none" xmlns="http://www.w3.org/2000/svg">
<circle cx="9" cy="9" r="8.5" stroke="black"/>
<path d="M9.86667 14V6.84583H8.14286V14H9.86667ZM9 5.83046C9.27302 5.83046 9.50794 5.74197 9.70476 5.56497C9.90159 5.38488 10 5.16907 10 4.91756C10 4.66294 9.90159 4.44714 9.70476 4.27014C9.50794 4.09005 9.27302 4 9 4C8.72381 4 8.48889 4.09005 8.29524 4.27014C8.09841 4.44714 8 4.66294 8 4.91756C8 5.16907 8.09841 5.38488 8.29524 5.56497C8.48889 5.74197 8.72381 5.83046 9 5.83046Z" fill="black"/>
</svg>
