<svg width="55" height="16" viewBox="0 0 55 16" fill="none" xmlns="http://www.w3.org/2000/svg">
<path d="M23.8037 4.90909L22.9585 10H22.4937L23.3389 4.90909H23.8037ZM25.0578 7.61364L24.6626 10H24.2201L24.8564 6.18182H25.2865L25.1871 6.78089H25.2268C25.3461 6.58535 25.511 6.42874 25.7215 6.31108C25.9336 6.19176 26.1797 6.1321 26.4598 6.1321C26.715 6.1321 26.9304 6.18596 27.1061 6.29368C27.2834 6.39974 27.4094 6.55634 27.4839 6.76349C27.5602 6.97064 27.5734 7.22502 27.5237 7.52663L27.1086 10H26.6661L27.0738 7.55398C27.1251 7.24242 27.0796 6.9955 26.9371 6.81321C26.7962 6.62926 26.5783 6.53729 26.2833 6.53729C26.0828 6.53729 25.8963 6.58037 25.724 6.66655C25.5533 6.75272 25.4091 6.87701 25.2915 7.03942C25.1738 7.20017 25.0959 7.39157 25.0578 7.61364ZM28.0352 11.4318L28.9151 6.18182H29.3452L29.2259 6.91016H29.2781C29.3477 6.79581 29.438 6.67815 29.549 6.55717C29.6617 6.4362 29.8017 6.33511 29.9691 6.25391C30.1381 6.17105 30.3403 6.12962 30.5756 6.12962C30.8905 6.12962 31.1515 6.21165 31.3587 6.37571C31.5675 6.53977 31.7133 6.77012 31.7962 7.06676C31.8807 7.3634 31.8898 7.7081 31.8235 8.10085C31.7589 8.49527 31.6354 8.84079 31.4531 9.13743C31.2708 9.43407 31.0479 9.66525 30.7844 9.83097C30.5226 9.99669 30.2359 10.0795 29.9244 10.0795C29.694 10.0795 29.5076 10.0381 29.3651 9.95526C29.2242 9.8724 29.1165 9.77048 29.0419 9.6495C28.9673 9.52687 28.9135 9.40755 28.8803 9.29155H28.8406L28.4826 11.4318H28.0352ZM29.0344 8.09339C28.9847 8.40163 28.9847 8.67507 29.0344 8.91371C29.0842 9.15069 29.1844 9.33712 29.3352 9.47301C29.486 9.60724 29.6849 9.67436 29.9318 9.67436C30.1854 9.67436 30.4116 9.60476 30.6104 9.46555C30.8093 9.32469 30.975 9.13494 31.1076 8.89631C31.2402 8.65767 31.3313 8.39003 31.381 8.09339C31.4274 7.80007 31.4258 7.53575 31.3761 7.30043C31.3263 7.0651 31.2269 6.87867 31.0778 6.74112C30.9286 6.60192 30.7256 6.53232 30.4688 6.53232C30.2202 6.53232 29.9964 6.59943 29.7976 6.73366C29.6004 6.86624 29.4363 7.05019 29.3054 7.28551C29.1745 7.51918 29.0842 7.78847 29.0344 8.09339ZM33.7655 4.90909L32.9204 10H32.4779L33.3231 4.90909H33.7655ZM35.1476 10.087C34.9173 10.087 34.7143 10.0423 34.5386 9.95277C34.363 9.86162 34.232 9.73071 34.1459 9.56001C34.0613 9.38767 34.0381 9.17886 34.0763 8.93359C34.1094 8.74467 34.1724 8.58558 34.2652 8.45632C34.3596 8.32706 34.479 8.221 34.6231 8.13814C34.7673 8.05362 34.933 7.98733 35.1203 7.93928C35.3076 7.89122 35.5114 7.85476 35.7318 7.8299C35.9472 7.80339 36.1312 7.78018 36.2836 7.7603C36.4361 7.74041 36.5546 7.70893 36.6391 7.66584C36.7236 7.62275 36.7742 7.55315 36.7907 7.45703L36.8057 7.36754C36.8488 7.10736 36.809 6.9027 36.6863 6.75355C36.5637 6.60275 36.3582 6.52734 36.0699 6.52734C35.7948 6.52734 35.5561 6.58866 35.354 6.71129C35.1534 6.83227 35.0043 6.97396 34.9065 7.13636L34.5138 6.98473C34.6331 6.77592 34.7797 6.60937 34.9537 6.48509C35.1278 6.35914 35.3142 6.26882 35.5131 6.21413C35.7119 6.15779 35.9083 6.12962 36.1022 6.12962C36.248 6.12962 36.3963 6.14867 36.5471 6.18679C36.6979 6.22491 36.833 6.29119 36.9523 6.38565C37.0733 6.47846 37.162 6.60855 37.2183 6.77592C37.2763 6.94164 37.2846 7.15211 37.2432 7.40732L36.8106 10H36.3682L36.4701 9.39595H36.4427C36.3731 9.50864 36.277 9.61802 36.1544 9.72408C36.0334 9.83014 35.8884 9.91714 35.7194 9.98509C35.5503 10.053 35.3598 10.087 35.1476 10.087ZM35.2595 9.68182C35.4948 9.68182 35.7078 9.62962 35.8983 9.52521C36.0906 9.42081 36.248 9.28243 36.3706 9.11009C36.4949 8.93608 36.5745 8.74467 36.6093 8.53587L36.7013 7.98402C36.6648 8.01551 36.6051 8.04368 36.5223 8.06854C36.4411 8.09339 36.3491 8.11577 36.2464 8.13565C36.1453 8.15388 36.0434 8.16963 35.9406 8.18288C35.8395 8.19614 35.75 8.20774 35.6721 8.21768C35.4517 8.2442 35.2595 8.28563 35.0954 8.34197C34.933 8.39832 34.8029 8.47621 34.7052 8.57564C34.6074 8.67341 34.5461 8.79936 34.5212 8.95348C34.4831 9.18549 34.5336 9.36529 34.6729 9.4929C34.8137 9.61884 35.0093 9.68182 35.2595 9.68182ZM37.9255 11.4318C37.8377 11.4318 37.7565 11.4235 37.6819 11.407C37.609 11.3904 37.5518 11.3722 37.5104 11.3523L37.6968 10.962C37.836 11.0101 37.9636 11.025 38.0796 11.0067C38.1973 10.9902 38.3092 10.9338 38.4152 10.8377C38.5213 10.7416 38.6257 10.5982 38.7284 10.4077L38.9372 10.0199L38.1816 6.18182H38.6414L39.238 9.4233H39.2703L40.9433 6.18182H41.4429L39.0938 10.5991C38.9927 10.7897 38.8809 10.9463 38.7583 11.0689C38.6373 11.1915 38.5064 11.2827 38.3655 11.3423C38.2263 11.402 38.0796 11.4318 37.9255 11.4318Z" fill="#EF3131"/>
<rect x="1.30176" y="1.5" width="52.2602" height="13" rx="6.5" stroke="#EF3131"/>
<path d="M1.57422 8C1.57422 4.41015 4.48437 1.5 8.07422 1.5H9.42875C13.7667 1.5 17.2833 5.01659 17.2833 9.35453V14.5H8.07422C4.48437 14.5 1.57422 11.5899 1.57422 8Z" fill="#EF3131" stroke="#EF3131"/>
<path d="M7.03904 4.511V4.16H10.172V4.511L9.45704 4.576C9.31837 4.59333 9.23604 4.628 9.21004 4.68C9.18404 4.732 9.17104 4.90967 9.17104 5.213V11.947C9.17104 12.2503 9.18404 12.428 9.21004 12.48C9.23604 12.532 9.31837 12.5667 9.45704 12.584L10.172 12.662V13H7.03904V12.662L7.75404 12.584C7.89271 12.5667 7.97504 12.532 8.00104 12.48C8.02704 12.428 8.04004 12.2503 8.04004 11.947V5.213C8.04004 4.90967 8.02704 4.732 8.00104 4.68C7.97504 4.628 7.89271 4.59333 7.75404 4.576L7.03904 4.511Z" fill="white"/>
</svg>
