<svg width="174" height="22" viewBox="0 0 174 22" fill="none" xmlns="http://www.w3.org/2000/svg">
<rect width="25.6667" height="22" rx="2" fill="#1876B2"/>
<circle cx="12.8333" cy="11" r="7.08333" fill="#4AA2DB" stroke="white" stroke-width="0.5"/>
<path d="M10.0835 14.6667V7.33337L16.5002 11L10.0835 14.6667Z" fill="white"/>
<path d="M33 2C33 0.89543 33.8954 0 35 0H58.6667V22H35C33.8954 22 33 21.1046 33 20V2Z" fill="#60BA1E"/>
<path d="M45.9999 5.92331C44.8133 5.92331 43.6533 6.24813 42.6667 6.85669C41.68 7.46525 40.911 8.33022 40.4569 9.34222C40.0028 10.3542 39.884 11.4678 40.1155 12.5421C40.347 13.6165 40.9184 14.6033 41.7575 15.3779C42.5966 16.1524 43.6656 16.6799 44.8295 16.8936C45.9933 17.1073 47.1996 16.9976 48.2959 16.5784C49.3922 16.1592 50.3293 15.4494 50.9885 14.5386C51.6478 13.6278 51.9997 12.557 51.9997 11.4617C51.9978 9.99331 51.3651 8.58559 50.2404 7.54731C49.1156 6.50903 47.5906 5.92499 45.9999 5.92331ZM45.9999 16.0769C45.0111 16.0769 44.0444 15.8063 43.2222 15.2991C42.4 14.792 41.7592 14.0712 41.3808 13.2278C41.0023 12.3845 40.9033 11.4565 41.0963 10.5613C41.2892 9.66598 41.7653 8.84362 42.4646 8.19816C43.1638 7.5527 44.0547 7.11313 45.0245 6.93505C45.9944 6.75697 46.9997 6.84837 47.9133 7.19769C48.8269 7.54701 49.6077 8.13856 50.1571 8.89754C50.7065 9.65652 50.9997 10.5488 50.9997 11.4617C50.9982 12.6853 50.471 13.8584 49.5337 14.7236C48.5963 15.5889 47.3255 16.0756 45.9999 16.0769ZM41.8539 5.78832L39.854 7.63443C39.8075 7.67731 39.7524 7.71133 39.6917 7.73453C39.631 7.75774 39.5659 7.76968 39.5003 7.76968C39.4346 7.76968 39.3695 7.75774 39.3088 7.73453C39.2481 7.71133 39.193 7.67731 39.1465 7.63443C39.0527 7.54783 39 7.43037 39 7.3079C39 7.18543 39.0527 7.06797 39.1465 6.98137L41.1464 5.13525C41.1929 5.09237 41.248 5.05836 41.3087 5.03515C41.3694 5.01194 41.4345 5 41.5002 5C41.5659 5 41.6309 5.01194 41.6916 5.03515C41.7523 5.05836 41.8074 5.09237 41.8539 5.13525C41.9003 5.17813 41.9372 5.22904 41.9623 5.28507C41.9875 5.34109 42.0004 5.40114 42.0004 5.46179C42.0004 5.52243 41.9875 5.58248 41.9623 5.6385C41.9372 5.69453 41.9003 5.74544 41.8539 5.78832ZM52.8534 7.63443C52.8069 7.67734 52.7518 7.71138 52.6911 7.73461C52.6304 7.75784 52.5653 7.76979 52.4996 7.76979C52.4339 7.76979 52.3689 7.75784 52.3082 7.73461C52.2475 7.71138 52.1923 7.67734 52.1459 7.63443L50.146 5.78832C50.0522 5.70172 49.9995 5.58426 49.9995 5.46179C49.9995 5.33931 50.0522 5.22186 50.146 5.13525C50.2398 5.04865 50.3671 5 50.4997 5C50.6324 5 50.7596 5.04865 50.8535 5.13525L52.8534 6.98137C52.8999 7.02423 52.9367 7.07513 52.9619 7.13116C52.9871 7.18719 53 7.24725 53 7.3079C53 7.36855 52.9871 7.42861 52.9619 7.48464C52.9367 7.54067 52.8999 7.59157 52.8534 7.63443ZM49.4998 11.0001C49.6324 11.0001 49.7595 11.0488 49.8533 11.1353C49.9471 11.2219 49.9998 11.3393 49.9998 11.4617C49.9998 11.5841 49.9471 11.7015 49.8533 11.788C49.7595 11.8746 49.6324 11.9232 49.4998 11.9232H45.9999C45.8673 11.9232 45.7402 11.8746 45.6464 11.788C45.5526 11.7015 45.5 11.5841 45.5 11.4617V8.23096C45.5 8.10855 45.5526 7.99116 45.6464 7.90461C45.7402 7.81805 45.8673 7.76943 45.9999 7.76943C46.1325 7.76943 46.2597 7.81805 46.3535 7.90461C46.4472 7.99116 46.4999 8.10855 46.4999 8.23096V11.0001H49.4998Z" fill="white"/>
<path d="M121 2C121 0.89543 121.895 0 123 0H146.667V22H123C121.895 22 121 21.1046 121 20V2Z" fill="#60BA1E"/>
<path d="M134 5.92331C132.813 5.92331 131.653 6.24813 130.667 6.85669C129.68 7.46525 128.911 8.33022 128.457 9.34222C128.003 10.3542 127.884 11.4678 128.116 12.5421C128.347 13.6165 128.918 14.6033 129.758 15.3779C130.597 16.1524 131.666 16.6799 132.829 16.8936C133.993 17.1073 135.2 16.9976 136.296 16.5784C137.392 16.1592 138.329 15.4494 138.989 14.5386C139.648 13.6278 140 12.557 140 11.4617C139.998 9.99331 139.365 8.58559 138.24 7.54731C137.116 6.50903 135.591 5.92499 134 5.92331ZM134 16.0769C133.011 16.0769 132.044 15.8063 131.222 15.2991C130.4 14.792 129.759 14.0712 129.381 13.2278C129.002 12.3845 128.903 11.4565 129.096 10.5613C129.289 9.66598 129.765 8.84362 130.465 8.19816C131.164 7.5527 132.055 7.11313 133.025 6.93505C133.994 6.75697 135 6.84837 135.913 7.19769C136.827 7.54701 137.608 8.13856 138.157 8.89754C138.706 9.65652 139 10.5488 139 11.4617C138.998 12.6853 138.471 13.8584 137.534 14.7236C136.596 15.5889 135.326 16.0756 134 16.0769ZM129.854 5.78832L127.854 7.63443C127.808 7.67731 127.752 7.71133 127.692 7.73453C127.631 7.75774 127.566 7.76968 127.5 7.76968C127.435 7.76968 127.37 7.75774 127.309 7.73453C127.248 7.71133 127.193 7.67731 127.147 7.63443C127.053 7.54783 127 7.43037 127 7.3079C127 7.18543 127.053 7.06797 127.147 6.98137L129.146 5.13525C129.193 5.09237 129.248 5.05836 129.309 5.03515C129.369 5.01194 129.434 5 129.5 5C129.566 5 129.631 5.01194 129.692 5.03515C129.752 5.05836 129.807 5.09237 129.854 5.13525C129.9 5.17813 129.937 5.22904 129.962 5.28507C129.987 5.34109 130 5.40114 130 5.46179C130 5.52243 129.987 5.58248 129.962 5.6385C129.937 5.69453 129.9 5.74544 129.854 5.78832ZM140.853 7.63443C140.807 7.67734 140.752 7.71138 140.691 7.73461C140.63 7.75784 140.565 7.76979 140.5 7.76979C140.434 7.76979 140.369 7.75784 140.308 7.73461C140.247 7.71138 140.192 7.67734 140.146 7.63443L138.146 5.78832C138.052 5.70172 137.999 5.58426 137.999 5.46179C137.999 5.33931 138.052 5.22186 138.146 5.13525C138.24 5.04865 138.367 5 138.5 5C138.632 5 138.76 5.04865 138.853 5.13525L140.853 6.98137C140.9 7.02423 140.937 7.07513 140.962 7.13116C140.987 7.18719 141 7.24725 141 7.3079C141 7.36855 140.987 7.42861 140.962 7.48464C140.937 7.54067 140.9 7.59157 140.853 7.63443ZM137.5 11.0001C137.632 11.0001 137.76 11.0488 137.853 11.1353C137.947 11.2219 138 11.3393 138 11.4617C138 11.5841 137.947 11.7015 137.853 11.788C137.76 11.8746 137.632 11.9232 137.5 11.9232H134C133.867 11.9232 133.74 11.8746 133.646 11.788C133.553 11.7015 133.5 11.5841 133.5 11.4617V8.23096C133.5 8.10855 133.553 7.99116 133.646 7.90461C133.74 7.81805 133.867 7.76943 134 7.76943C134.133 7.76943 134.26 7.81805 134.353 7.90461C134.447 7.99116 134.5 8.10855 134.5 8.23096V11.0001H137.5Z" fill="white"/>
<path d="M85.1665 2C85.1665 0.89543 84.2711 0 83.1665 0H59.4998V22H83.1665C84.2711 22 85.1665 21.1046 85.1665 20V2Z" fill="#0A92A5"/>
<path d="M77.8333 7.33333V5.5H67.75L65 17.4167H69.5833L70.5 11.9167H76V10.0833H71.4167L72.3333 7.33333H77.8333Z" fill="#FAFAFA"/>
<path d="M173.167 2C173.167 0.89543 172.271 0 171.167 0H147.5V22H171.167C172.271 22 173.167 21.1046 173.167 20V2Z" fill="#226BC3"/>
<path fill-rule="evenodd" clip-rule="evenodd" d="M153 16.5L156.667 5.5H166.75C168.217 6.23333 167.361 9.47222 166.75 11C166.75 12.8333 165.833 16.5 164 16.5H153ZM162.167 11H159.417L158.5 13.75H161.25L162.167 11ZM159.417 10.0833L160.333 7.33333H163.083L162.167 10.0833H159.417Z" fill="white"/>
<rect x="91.6665" width="25.6667" height="22" rx="2" fill="#E4550F"/>
<path fill-rule="evenodd" clip-rule="evenodd" d="M100.833 5.5L97.1665 16.5H101.75L102.667 13.75H109.083L111.833 5.5H100.833ZM104.5 7.33333L102.667 11.9167H106.333L108.167 7.33333H104.5Z" fill="white"/>
</svg>
