<svg width="37" height="37" viewBox="0 0 37 37" fill="none" xmlns="http://www.w3.org/2000/svg">
<path d="M34.2251 27.2878H30.0626V23.1253C30.0626 22.3668 29.4336 21.7378 28.6751 21.7378C27.9166 21.7378 27.2876 22.3668 27.2876 23.1253V27.2878H23.1251C22.3666 27.2878 21.7376 27.9168 21.7376 28.6753C21.7376 29.4338 22.3666 30.0628 23.1251 30.0628H27.2876V34.2253C27.2876 34.9838 27.9166 35.6128 28.6751 35.6128C29.4336 35.6128 30.0626 34.9838 30.0626 34.2253V30.0628H34.2251C34.9836 30.0628 35.6126 29.4338 35.6126 28.6753C35.6126 27.9168 34.9836 27.2878 34.2251 27.2878Z" fill="white"/>
<path d="M36.9998 12.0622V3.66318C36.9998 1.05468 35.8158 0.000183105 32.8743 0.000183105H25.4003C22.4588 0.000183105 21.2748 1.05468 21.2748 3.66318V12.0437C21.2748 14.6707 22.4588 15.7067 25.4003 15.7067H32.8743C35.8158 15.7252 36.9998 14.6707 36.9998 12.0622Z" fill="white"/>
<path d="M15.7253 12.062V3.663C15.7253 1.0545 14.5413 0 11.5998 0H4.1258C1.18431 0 0.000305176 1.0545 0.000305176 3.663V12.0435C0.000305176 14.6705 1.18431 15.7065 4.1258 15.7065H11.5998C14.5413 15.725 15.7253 14.6705 15.7253 12.062Z" fill="white"/>
<path d="M15.725 32.8745V25.4005C15.725 22.459 14.541 21.275 11.5995 21.275H4.1255C1.184 21.275 0 22.459 0 25.4005V32.8745C0 35.816 1.184 37 4.1255 37H11.5995C14.541 37 15.725 35.816 15.725 32.8745Z" fill="white"/>
</svg>
