<svg width="27" height="29" viewBox="0 0 27 29" fill="none" xmlns="http://www.w3.org/2000/svg">
<path d="M23.8058 15.4541C23.8613 15.0049 23.9029 14.5487 23.9029 14.0855C23.9029 13.6223 23.8613 13.166 23.8058 12.7168L26.7404 10.3937C27.004 10.1831 27.0803 9.80409 26.9069 9.49527L24.1318 4.63131C23.9584 4.3295 23.5976 4.20317 23.2855 4.3295L19.8305 5.74026C19.116 5.18578 18.332 4.71553 17.4856 4.35758L16.9653 0.637667C16.9029 0.307788 16.6184 0.0480957 16.2716 0.0480957H10.7215C10.3746 0.0480957 10.0902 0.307788 10.0347 0.637667L9.51436 4.35758C8.67569 4.71147 7.88717 5.17642 7.16946 5.74026L3.71455 4.3295C3.56099 4.27023 3.39163 4.26804 3.23663 4.32331C3.08162 4.37858 2.95105 4.48773 2.86816 4.63131L0.0931334 9.49527C-0.080306 9.79707 -0.0039925 10.1761 0.259635 10.3937L3.18729 12.7168C3.13179 13.166 3.09017 13.6223 3.09017 14.0855C3.09017 14.5487 3.13179 15.0049 3.18729 15.4541L0.259635 17.7773C-0.0039925 17.9879 -0.080306 18.3669 0.0931334 18.6757L2.86816 23.5397C3.0416 23.8415 3.40236 23.9678 3.71455 23.8415L7.16946 22.4307C7.88403 22.9852 8.66798 23.4555 9.51436 23.8134L10.0347 27.5333C10.0902 27.8632 10.3746 28.1229 10.7215 28.1229H16.2716C16.6184 28.1229 16.9029 27.8632 16.9584 27.5333L17.4787 23.8134C18.3174 23.4595 19.1059 22.9946 19.8236 22.4307L23.2785 23.8415C23.4321 23.9008 23.6014 23.903 23.7564 23.8477C23.9114 23.7924 24.042 23.6833 24.1249 23.5397L26.8999 18.6757C27.0734 18.3739 26.9971 17.9949 26.7334 17.7773L23.8058 15.4541ZM13.4965 18.9986C10.8117 18.9986 8.64023 16.8017 8.64023 14.0855C8.64023 11.3693 10.8117 9.17241 13.4965 9.17241C16.1814 9.17241 18.3528 11.3693 18.3528 14.0855C18.3528 16.8017 16.1814 18.9986 13.4965 18.9986Z" fill="#E9E5E5"/>
</svg>
