<svg width="240" height="240" viewBox="0 0 240 240" fill="none" xmlns="http://www.w3.org/2000/svg">
<g clip-path="url(#clip0_1339_37)">
<path d="M49.3334 5.19999C40.5334 9.86666 37.2001 18.6667 40.2668 29.4667C41.3334 32.9333 41.2001 32.9333 32.8001 33.6C23.7334 34.4 18.9334 36.8 15.0668 42.4C12.8001 45.7333 12.6668 50.4 12.2668 100.667L11.8668 155.333L8.26677 158.267L4.66677 161.067L4.26677 192.933C4.0001 210.4 4.26677 226.667 4.66677 229.067C5.2001 232.133 6.8001 234.267 9.73343 236C13.8668 238.533 17.2001 238.667 110.4 238.667C213.067 238.667 212.533 238.667 215.467 232.4C216.133 231.067 216.933 218.267 217.333 204L218 178L223.333 177.6C236.667 176.8 240 172.8 240 157.867C240 149.2 239.733 148 236 144.267L232 140V116.8C232 95.3333 232.133 93.3333 234.533 91.7333C243.733 85.2 238.933 72 227.467 72C225.733 72 222.8 73.4667 220.8 75.3333C216.267 79.6 216.133 85.6 220.667 90.1333C224 93.4667 224 93.7333 224 116.667V140H216.667H209.467L209.067 92.8L208.667 45.4667L204.667 41.2C199.467 35.7333 193.6 33.3333 185.467 33.3333H178.933L180.933 29.2C185.333 20.4 179.467 7.99999 168.933 4.13333C166.533 3.19999 145.467 2.66666 109.6 2.66666C58.0001 2.66666 53.6001 2.79999 49.3334 5.19999ZM172.133 14.5333C175.733 18.9333 175.467 26 171.333 30L168.133 33.3333H110.4C48.1334 33.2 49.4668 33.3333 46.6668 26.1333C44.6668 20.5333 44.9334 18.8 49.3334 14.5333L53.2001 10.5333L111.333 10.9333L169.6 11.3333L172.133 14.5333ZM198 44.6667L201.333 47.8667V101.333V154.667H110.667H20.0001V100.667C20.0001 46.9333 20.0001 46.8 22.9334 44C25.7334 41.3333 27.2001 41.3333 110.267 41.3333H194.8L198 44.6667ZM232 82.6667C232 86 228.667 87.4667 226 85.3333C223.333 83.2 225.067 80 228.8 80C231.067 80 232 80.8 232 82.6667ZM232 158.667V169.2L227.467 170C220.533 171.333 218.4 170.4 216.8 165.6C215.867 163.067 213.867 159.733 212.267 158C210.667 156.4 209.333 153.333 209.333 151.467C209.333 148 209.333 148 220.667 148H232V158.667ZM208.667 196.667V230L205.067 230.4L201.333 230.8V200.8V170.667H110H18.6668V200.8V230.8L15.7334 230.4L12.6668 230L12.2668 198C12.1334 180.4 12.2668 165.333 12.6668 164.4C13.0668 162.933 32.6668 162.667 110.933 162.933L208.667 163.333V196.667ZM37.6001 178.133C38.0001 178.533 37.4668 181.6 36.5334 184.933C32.4001 198.533 35.4668 212.8 44.8001 222.667C48.0001 226.133 50.6668 229.333 50.6668 229.867C50.6668 230.267 45.3334 230.667 38.6668 230.667H26.6668V204.933C26.6668 190.667 27.0668 178.667 27.6001 178.267C28.6668 177.2 36.5334 177.067 37.6001 178.133ZM66.9334 178.133C67.3334 178.533 66.2668 180.267 64.5334 182C57.0668 189.467 62.9334 200 74.6668 200C81.3334 200 84.9334 202.4 83.4668 206C82.4001 208.8 69.8668 208.8 68.8001 206C68.4001 204.933 66.5334 204 64.6668 204C61.6001 204 61.3334 204.533 61.3334 210V216H66.5334C71.3334 216 71.8668 216.4 72.2668 219.733C72.5334 222.533 73.3334 223.333 76.0001 223.333C78.6668 223.333 79.4668 222.533 79.7334 219.733C80.0001 217.333 81.3334 215.733 84.1334 214.667C89.8668 212.267 92.6668 206.267 90.5334 201.2C88.4001 195.867 84.4001 193.333 78.0001 193.333C71.4668 193.333 68.9334 191.867 69.6001 188.533C70.2668 185.067 84.0001 184 84.0001 187.333C84.0001 188.933 85.0668 189.333 87.7334 189.067C90.9334 188.667 91.3334 188.133 91.7334 182.933L92.1334 177.2L98.4001 177.6C104.4 178 104.8 178.267 107.733 184C113.067 194.667 110.933 207.733 101.733 219.733C94.2668 229.6 75.0668 233.6 62.4001 228C55.0668 224.8 46.2668 215.6 44.0001 208.8C41.7334 201.867 42.6668 185.467 45.7334 180.933C47.8668 177.6 48.8001 177.333 57.2001 177.333C62.1334 177.333 66.5334 177.733 66.9334 178.133ZM150.4 178.533C151.467 179.2 152 180.8 151.733 182.133C151.067 185.733 139.2 186.533 136.8 183.333C135.867 182 134 181.333 132.533 181.6C130.533 181.867 130 183.2 130 187.333C130 192.667 130 192.667 135.733 193.067C140.667 193.467 141.333 193.867 141.333 196.8C141.333 199.733 141.867 200.133 145.067 199.733C147.6 199.467 148.8 198.533 149.067 196.267C149.333 194.533 151.067 192.533 152.933 191.6C156.533 190 160 184.4 160 180C160 177.6 160.8 177.333 168.667 177.333C178.933 177.333 179.867 178.4 176.267 186.8C170.533 200.133 158.8 207.867 144.667 208C136 208 125.2 203.867 121.2 199.2C119.2 196.933 114.667 182.667 114.667 178.933C114.667 177.067 147.6 176.667 150.4 178.533ZM194.4 204.4L194.667 230.667H147.867H101.067L107.2 223.867C110.533 220.133 114 214.8 114.8 211.867C115.733 209.067 116.933 206.667 117.467 206.667C118.133 206.667 122.133 208.533 126.267 210.933C132.933 214.533 135.333 215.2 144 215.2C151.867 215.333 155.467 214.667 160.667 212.267C172.267 206.8 182.533 194.8 184.667 184C186 177.6 186.4 177.067 190.4 177.6L194 178L194.4 204.4Z" fill="white"/>
<path d="M53.6001 22.2667C53.8667 25.2 54.6667 26 57.3334 26C60.0001 26 60.8001 25.2 61.0667 22.2667C61.4667 19.0667 61.0667 18.6667 57.3334 18.6667C53.6001 18.6667 53.2001 19.0667 53.6001 22.2667Z" fill="white"/>
<path d="M68.5335 20.6667C68.0002 21.7333 68.0002 23.6 68.5335 24.6667C69.2002 26.4 74.6669 26.6667 110.267 26.4L151.334 26L151.734 22.2667L152.134 18.6667H110.667C75.0669 18.6667 69.2002 18.9333 68.5335 20.6667Z" fill="white"/>
<path d="M160.267 22.2667C160.534 25.2 161.334 26 164 26C166.667 26 167.334 25.3333 167.334 22.6667C167.334 20 166.534 19.2 163.6 18.9333C160.134 18.5333 159.867 18.8 160.267 22.2667Z" fill="white"/>
<path d="M30.1334 51.3333L26.6667 54.5333V97.6C26.6667 138 26.9334 140.933 29.3334 144L31.8667 147.333L108.267 147.733C189.6 148.133 191.067 148 193.467 141.733C194.133 140 194.667 120.267 194.667 97.8667C194.667 55.3333 194.133 50.9333 188.667 48.8C187.467 48.4 152.133 48 110.133 48H33.7334L30.1334 51.3333ZM80.0001 60V64H57.3334H34.6667V60V56H57.3334H80.0001V60ZM133.333 90V124H110.667H88.0001V90V56H110.667H133.333V90ZM186 60V63.3333L163.733 63.7333L141.333 64V60V56L163.733 56.2667L186 56.6667V60ZM80.0001 106V140H57.3334H34.6667V106V72H57.3334H80.0001V106ZM186.4 105.6L186 139.333L163.733 139.733L141.333 140V106V72H164H186.667L186.4 105.6ZM133.333 136V140H110.667H88.0001V136V132H110.667H133.333V136Z" fill="white"/>
<path d="M95.2001 74C93.7335 77.6 96.1335 78.6667 106 78.6667C111.467 78.6667 116.133 79.2 116.533 79.7333C116.933 80.4 115.067 84.2667 112.533 88.5333C110.133 92.6667 108 96.5333 108 96.9333C108 97.3333 106.267 100.667 104 104.133L100.133 110.533L102.933 112.533C106.4 115.067 106 115.6 117.2 95.0667C122.133 86 125.333 78.5333 125.333 76V72H110.667C98.9335 72 95.7335 72.4 95.2001 74Z" fill="white"/>
<path d="M42.6667 90.6667V94.6667H53.3334H63.8667L62.2667 98.4C61.3334 100.4 57.7334 107.067 54.1334 113.333C49.3334 121.467 48.0001 125.067 48.9334 126.533C51.2001 130.133 53.2001 129.6 56.0001 124.4C57.4667 121.6 60.5334 116 62.8001 112C70.4001 98.5333 72.0001 94.8 72.0001 90.6667V86.6667H57.3334H42.6667V90.6667Z" fill="white"/>
<path d="M148.534 88.6667C146.667 93.4667 148.934 94.6667 160 94.6667H170.667L167.334 100.933C165.467 104.533 163.334 108.267 162.667 109.333C162 110.4 159.6 114.533 157.334 118.533C153.6 124.933 153.334 126 155.2 127.733C158.267 130.8 160.267 129.067 165.734 118.533C168.534 113.067 172.667 105.6 174.8 102C176.8 98.2667 178.534 93.3333 178.667 90.9333V86.6667H164C152.134 86.6667 149.067 87.0667 148.534 88.6667Z" fill="white"/>
</g>
<defs>
<clipPath id="clip0_1339_37">
<rect width="240" height="240" fill="white"/>
</clipPath>
</defs>
</svg>
