<svg width="240" height="240" viewBox="0 0 240 240" fill="none" xmlns="http://www.w3.org/2000/svg">
<path d="M103.333 4.66666C76.1334 8.93333 53.6001 20.8 34.5334 40.9333C-8.3999 86.1333 -7.06657 159.067 37.6001 202.133C53.2001 217.2 64.9334 224.4 83.4668 230.533C101.6 236.4 117.6 238 134.267 235.467C158 231.867 175.333 224.267 193.467 209.333C212.133 194.133 225.733 173.067 232.133 149.333C236.533 133.467 236.533 106.933 232.267 90.9333C222.533 53.8667 193.467 22.5333 157.333 9.86666C147.867 6.53333 125.6 2.53333 118 2.79999C115.867 2.93333 109.2 3.73333 103.333 4.66666ZM146.667 16C152.933 17.6 158.8 19.6 159.6 20.4C160.533 21.3333 162.533 28.9333 164.133 37.2L167.067 52.4L163.867 55.0667C162.133 56.4 157.867 60.2667 154.4 63.4667L148.133 69.3333L119.867 69.0667L91.7334 68.6667L85.2001 59.2L78.6668 49.7333L83.8668 33.8667C88.2668 20.2667 89.6001 17.7333 92.8001 16.1333C102.267 11.3333 128.4 11.3333 146.667 16ZM78.2668 64.4L85.6001 74.6667L77.2001 100.667L68.8001 126.533L57.4668 130C51.2001 132 45.0668 133.733 44.0001 134.133C42.8001 134.4 39.0668 132.267 35.4668 129.333C32.0001 126.4 25.2001 121.2 20.5334 117.733C15.8668 114.267 12.0001 110.533 12.0001 109.467C12.1334 98.4 21.2001 73.3333 29.3334 61.2L34.8001 53.2L52.9334 53.6L71.0668 54L78.2668 64.4ZM192.667 61.3333C212.8 63.6 211.733 63.0667 216.933 74.2667C222.267 86 226.133 100.267 226.8 111.2L227.333 119.067L211.067 128.267L194.667 137.333L182.667 132.4L170.667 127.333L162.667 103.2C158.267 89.8667 154.667 78 154.667 76.9333C154.667 75.8667 158.4 71.6 162.933 67.4667C172.133 59.0667 172.133 59.0667 192.667 61.3333ZM92.6668 150.4L114 166.133L114.4 180.533C114.8 194.267 114.667 195.067 111.733 197.2C110.133 198.4 102 204 93.6001 209.6L78.5334 219.867L73.6001 217.6C59.7334 211.333 39.8668 194.933 33.0668 184.133L30.4001 180L36.6668 162.4C40.0001 152.667 43.0668 144.533 43.3334 144.267C43.8668 143.733 69.0668 135.067 70.6668 134.8C71.0668 134.8 80.9334 141.733 92.6668 150.4ZM180.8 140.533C186.533 143.067 191.733 146.267 192.267 147.6C192.933 148.933 195.067 158.933 197.2 170C201.733 193.067 201.867 192.267 190.267 201.467C180.667 209.067 170.8 215.333 162.8 218.8L156.133 221.6L150.4 217.2C147.2 214.8 144.4 212.4 144 212C143.6 211.6 138.8 207.867 133.2 203.733L122.933 196.133L122.8 182.267C122.533 170.533 122.933 168.267 124.933 166.4C131.733 160.4 166.267 136 168.133 136C169.333 136 174.933 138 180.8 140.533Z" fill="white"/>
</svg>
