<svg width="49" height="49" viewBox="0 0 49 49" fill="none" xmlns="http://www.w3.org/2000/svg">
<path fill-rule="evenodd" clip-rule="evenodd" d="M24.5 49C38.031 49 49 38.031 49 24.5C49 10.969 38.031 0 24.5 0C10.969 0 0 10.969 0 24.5C0 38.031 10.969 49 24.5 49ZM6.28154 15.6848C8.47378 11.1541 12.2755 7.60278 16.9449 5.72393C19.3445 4.75143 21.9098 4.25455 24.4989 4.26093C29.5321 4.26065 34.3848 6.1358 38.11 9.52043C41.8353 12.9051 44.1657 17.5563 44.6465 22.5665C45.1274 27.5767 43.7241 32.5862 40.7106 36.6176C37.6971 40.649 33.2896 43.4128 28.3483 44.3699C23.4069 45.3269 18.2862 44.4083 13.9855 41.7935C9.68485 39.1787 6.51277 35.0553 5.08833 30.2278C3.66389 25.4004 4.0893 20.2154 6.28154 15.6848ZM6.80571 30.591C7.59892 31.406 8.49113 32.1184 9.46149 32.7115L9.45347 32.6469C9.52266 32.6982 9.59602 32.7435 9.67278 32.7825L13.1609 27.2716C12.6692 24.897 12.4274 22.4774 12.4392 20.0525V19.943L7.92712 17.2616C7.82662 17.3983 7.73626 17.5324 7.6465 17.6656C7.59231 17.746 7.53833 17.8261 7.48249 17.9063C6.99771 18.5803 6.56671 19.2915 6.19349 20.0332C5.38612 23.5388 5.59855 27.2022 6.80571 30.591ZM25.3629 42.9986C24.5338 42.7281 23.7277 42.3918 22.9521 41.9931L22.7717 41.89L15.1724 40.5429C18.2713 42.3021 21.8029 43.1531 25.3629 42.9986ZM13.9736 39.0346L22.9004 40.6588L22.8819 40.6199C22.9098 40.5883 22.9375 40.5566 22.965 40.5251C23.0773 40.3967 23.1869 40.2713 23.3009 40.1624C24.0571 39.1743 24.7982 38.1602 25.5245 37.1202L21.3147 29.8496C21.2699 29.8496 21.2223 29.841 21.1713 29.8318C21.1123 29.8211 21.0487 29.8095 20.9795 29.8095C18.7279 29.4956 16.4962 29.0522 14.2955 28.4817L14.0377 28.4107L10.4927 33.883C10.6169 34.1154 10.7503 34.3364 10.8818 34.5541C10.9689 34.6984 11.0552 34.8413 11.1374 34.9852C11.9583 36.418 12.9076 37.7734 13.9736 39.0346ZM35.5598 39.4472C36.3648 38.8647 37.1213 38.218 37.8219 37.5135L37.8239 37.5195C41.0145 34.3539 42.9534 30.1419 43.2834 25.6595C43.185 25.7922 43.0653 25.9077 42.929 26.0011C41.818 26.7784 40.6327 27.4434 39.3903 27.9865L34.8782 36.366C35.2012 37.3695 35.4294 38.4011 35.5598 39.4472ZM38.1426 27.6537L37.6214 26.6915L37.6142 26.6927C36.7044 24.982 35.6972 23.3249 34.5976 21.7296L25.6207 22.6112C25.1761 23.488 24.7374 24.3388 24.2864 25.1896C23.6417 26.479 22.997 27.7035 22.2817 28.954L26.6306 36.362C29.0087 36.3636 31.382 36.1478 33.7207 35.7173H33.7981L38.1426 27.6537ZM34.4428 20.465C34.8951 19.3564 35.3453 18.2479 35.7771 17.1329H35.7787C36.0173 16.4946 36.2238 15.8306 36.3978 15.2184L30.3894 8.47794C29.5716 8.42637 28.7514 8.42637 27.9337 8.47794C26.7142 8.54934 25.4675 8.68083 24.2693 8.8072C24.1691 8.81777 24.0692 8.82831 23.9697 8.83878C23.7938 8.85852 23.6197 8.89081 23.4484 8.9354L21.0248 16.2123L22.2753 17.4552L25.3886 20.955C25.5051 21.0845 25.6149 21.2201 25.7173 21.3611L34.4428 20.465ZM41.6893 16.5655C40.7491 14.4936 39.4384 12.6106 37.8219 11.0094L37.8203 11.011C36.0466 9.24723 33.9384 7.85562 31.6195 6.91791C31.6097 7.20912 31.5838 7.49956 31.5421 7.78793L37.5043 14.4073L38.1057 14.6331C39.3661 15.1469 40.5675 15.7948 41.6893 16.5655ZM18.537 6.60197C18.5168 6.59303 18.499 6.57927 18.4853 6.56188L18.5306 6.49773C15.7751 7.41432 13.2703 8.95886 11.214 11.0094L11.1849 11.0402C10.9865 11.2506 10.7722 11.4777 10.5693 11.699C10.2458 12.2682 9.95144 12.8534 9.68722 13.4523C9.36062 14.199 9.07543 14.9674 8.79171 15.7318C8.77869 15.7669 8.76567 15.802 8.75264 15.8371C8.70161 15.9664 8.67536 16.1042 8.67526 16.2432L13.1485 18.8861C14.889 17.7716 16.7118 16.7911 18.6012 15.9533C18.8913 15.8225 19.1864 15.7047 19.4818 15.5868C19.6526 15.5186 19.8235 15.4504 19.9936 15.3796L22.295 8.53567C21.1384 7.71931 19.8736 7.06846 18.537 6.60197Z" fill="#FFCC2F"/>
</svg>
