<svg width="15" height="15" viewBox="0 0 15 15" fill="none" xmlns="http://www.w3.org/2000/svg">
<path d="M11.0926 5.03018L11.0926 5.03028L11.1029 5.03199L13.4932 5.42833C13.4932 5.42833 13.4932 5.42834 13.4933 5.42834C14.1694 5.54111 14.4158 5.81282 14.4772 6.00579C14.5392 6.20087 14.4943 6.57131 14.0074 7.06594C14.0072 7.06617 14.007 7.06641 14.0067 7.06664L12.1425 8.94338C11.9131 9.17436 11.7561 9.48808 11.6693 9.79398C11.5824 10.1003 11.5504 10.4526 11.6257 10.777C11.6257 10.7772 11.6258 10.7774 11.6258 10.7776L12.16 13.0983L12.16 13.0985C12.361 13.9707 12.167 14.3248 12.0322 14.4239C11.9 14.5211 11.5109 14.6012 10.7482 14.1432L10.7475 14.1428L8.50822 12.8034C8.2092 12.622 7.84416 12.5475 7.5094 12.5475C7.17465 12.5475 6.80963 12.622 6.51061 12.8034L4.27242 14.1421C4.27221 14.1422 4.272 14.1423 4.27179 14.1425C3.50901 14.5958 3.11887 14.5173 2.98573 14.4198C2.85193 14.3218 2.65771 13.971 2.85875 13.0985L2.85878 13.0983L3.39319 10.7765L3.39555 10.7662L3.39747 10.7559C3.45717 10.4354 3.42122 10.0878 3.33199 9.78214C3.24323 9.47805 3.08695 9.16493 2.85751 8.93395L0.991762 7.05569C0.505432 6.5661 0.460912 6.19814 0.522844 6.00343C0.584653 5.8091 0.832551 5.53588 1.50812 5.41868L3.89627 5.0227C3.8964 5.02268 3.89652 5.02266 3.89665 5.02264C4.19888 4.97303 4.49268 4.82349 4.72923 4.64634C4.96524 4.46959 5.19041 4.2308 5.32368 3.95682L6.64345 1.29956C6.64364 1.2992 6.64382 1.29883 6.644 1.29847C6.96951 0.652187 7.3071 0.499521 7.49877 0.500001C7.6909 0.500482 8.02971 0.655411 8.35573 1.30727C8.35582 1.30746 8.35591 1.30764 8.356 1.30782L9.67637 3.96626C9.81053 4.24205 10.0371 4.47868 10.2724 4.65342C10.5092 4.82933 10.7987 4.97513 11.0926 5.03018Z" stroke="black"/>
</svg>
