<svg width="51" height="51" viewBox="0 0 51 51" fill="none" xmlns="http://www.w3.org/2000/svg">
<path d="M25.5 51C39.5833 51 51 39.5833 51 25.5C51 11.4167 39.5833 0 25.5 0C11.4167 0 0 11.4167 0 25.5C0 39.5833 11.4167 51 25.5 51Z" fill="url(#paint0_linear_952_1671)"/>
<path d="M9.49684 26.7474C12.4778 25.1054 15.8053 23.735 18.9144 22.3575C24.2633 20.1014 29.6333 17.8844 35.0576 15.8204C36.1129 15.4687 38.0092 15.1249 38.1952 16.6889C38.0932 18.9027 37.6746 21.1036 37.3873 23.3044C36.6582 28.1443 35.8152 32.9677 34.9934 37.7916C34.7102 39.3983 32.6974 40.2303 31.4094 39.202C28.3141 37.111 25.1951 35.0408 22.1393 32.9014C21.1384 31.8843 22.0666 30.4236 22.9604 29.6973C25.5098 27.1849 28.2134 25.0503 30.6295 22.4081C31.2813 20.8343 29.3556 22.1608 28.7204 22.5673C25.2303 24.9724 21.8257 27.5243 18.146 29.638C16.2665 30.6727 14.0758 29.7885 12.1971 29.2109C10.5126 28.5137 8.04419 27.8109 9.49663 26.7476L9.49684 26.7474Z" fill="white"/>
<defs>
<linearGradient id="paint0_linear_952_1671" x1="34.0021" y1="8.5017" x2="21.2521" y2="38.25" gradientUnits="userSpaceOnUse">
<stop stop-color="#37AEE2"/>
<stop offset="1" stop-color="#1E96C8"/>
</linearGradient>
</defs>
</svg>
