<svg width="46" height="46" viewBox="0 0 46 46" fill="none" xmlns="http://www.w3.org/2000/svg">
<path d="M35.7082 1.06587C34.0865 1.33939 32.6074 2.16003 31.5171 3.3912C30.8787 4.0319 30.3807 4.79854 30.055 5.64228C29.7292 6.48602 29.5827 7.38837 29.6249 8.29183C29.5826 9.18941 29.7265 10.086 30.0476 10.9253C30.3687 11.7645 30.8601 12.5282 31.4907 13.1683C32.3313 14.1218 33.4175 14.8261 34.631 15.2046C35.4238 15.4975 36.2751 15.5966 37.114 15.4936C38.7562 15.4277 39.6893 15.1518 40.8043 14.4164C42.0345 13.6141 42.9971 12.4625 43.5685 11.1095C44.1399 9.75646 44.2941 8.26358 44.0114 6.8223C43.7756 5.76061 43.3146 4.76192 42.6595 3.89379C42.0045 3.02566 41.1706 2.30832 40.2143 1.79031C38.8136 1.11918 37.2487 0.867593 35.7082 1.06587ZM38.638 2.09081C39.5019 2.33006 40.3043 2.75193 40.9911 3.32793C41.678 3.90394 42.2331 4.62065 42.6192 5.42965C43.1463 6.50686 43.4978 8.20177 43.25 8.45174C43.0023 8.70171 41.3056 8.34674 40.202 7.80814C38.1372 6.7977 36.6545 4.54969 36.6545 2.42118V1.8562H37.2195C37.6993 1.88351 38.1749 1.96202 38.638 2.09037V2.09081ZM35.8 2.66895C35.9141 3.61641 36.1802 4.53927 36.5882 5.40198C37.1644 6.48064 37.9963 7.40157 39.0111 8.08413C40.0258 8.7667 41.1924 9.19008 42.4087 9.31721L43.2364 9.38311L43.1578 9.79037C42.8334 10.9197 42.238 11.9526 41.4233 12.7993C40.5735 13.6195 39.536 14.2194 38.4012 14.5469C38.0203 14.6255 37.9676 14.5996 37.9676 14.3496C37.8559 13.2621 37.5767 12.1984 37.1399 11.1962C36.1018 9.05449 33.3824 7.25459 31.1748 7.24229C30.9634 7.25973 30.751 7.22362 30.5571 7.1373C30.439 6.94005 31.0957 5.2715 31.5821 4.562C32.1872 3.68885 33.0121 2.99084 33.9733 2.53847C35.5241 1.76219 35.6818 1.77537 35.8 2.66851V2.66895ZM32.1211 8.22681C33.7265 8.60624 35.124 9.5896 36.0232 10.9726C36.6267 11.9052 36.9797 12.9777 37.0481 14.0865V14.7301H36.549C35.0401 14.6376 33.61 14.0246 32.5025 12.9957C31.303 11.9022 30.5615 10.3956 30.4267 8.77816L30.3348 8.03131H30.8339C31.2682 8.05534 31.6992 8.12065 32.1211 8.22637V8.22681Z" fill="#222222" stroke="#222222" stroke-width="0.6"/>
<path d="M10.7851 1.26257C8.8178 1.65599 6.97844 2.53012 5.43101 3.80703C3.88359 5.08394 2.6762 6.72394 1.9165 8.58078C-0.474727 14.585 1.94286 22.1005 7.658 26.3443C10.0059 28.1565 12.8137 29.276 15.7644 29.5764C19.4511 29.9585 23.0578 30.9022 26.4592 32.3749C28.7586 33.4521 29.4154 34.0039 35.0387 39.6013C37.9554 42.5048 40.4257 44.9224 40.5439 44.9883C40.7016 45.0801 41.2028 44.6465 42.8433 43.0306C44.1573 41.7166 44.9322 40.8494 44.9322 40.6921C44.9322 40.5212 43.0664 38.5504 39.5725 35.0293C35.7504 31.1927 34.0278 29.3664 33.5815 28.6964C32.2543 26.6597 31.1507 23.8481 30.3626 20.511C29.9534 18.6895 29.6421 16.8475 29.4299 14.9927C29.1532 13.3423 28.6399 11.7404 27.9059 10.2366C26.745 7.9492 25.0819 5.95389 23.0411 4.39993C21.0002 2.84598 18.6344 1.7736 16.1207 1.26301C14.3505 1.01958 12.5553 1.01943 10.7851 1.26257ZM15.778 2.06389C18.8968 2.61433 21.7694 4.11477 24.003 6.36001C25.835 8.09983 27.2074 10.2666 27.9973 12.6665C30.349 19.6561 27.1696 26.3294 20.5345 28.3538C19.4832 28.6692 19.1814 28.6956 17.1447 28.6956C15.1344 28.7087 14.7798 28.6692 13.5972 28.3538C11.6868 27.7692 9.87871 26.8917 8.23746 25.7526C6.98414 24.7856 5.85842 23.6637 4.8872 22.4137C3.74788 20.7627 2.87031 18.9456 2.28553 17.0267C1.95692 15.8573 1.931 15.4891 1.91782 13.5451C1.91782 11.7057 1.97054 11.2198 2.20689 10.3262C2.64049 8.64197 3.45965 7.08159 4.59971 5.76823C5.73977 4.45487 7.16951 3.4245 8.77607 2.75846C10.9987 1.87677 13.4241 1.63627 15.7767 2.06432L15.778 2.06389ZM29.6759 21.391C30.5036 24.6231 31.9604 27.9733 33.3662 29.8128L34.1939 30.9163L32.5649 32.5453C31.6713 33.4389 30.9095 34.1743 30.87 34.1743C30.8305 34.1743 30.3428 33.8198 29.7664 33.3994C27.8483 31.954 25.3649 30.8513 21.9491 29.8914C21.3743 29.7725 20.8177 29.5781 20.2938 29.3133C20.5353 29.1957 20.7917 29.1117 21.056 29.0637C21.726 28.8928 21.8182 28.906 23.0004 29.3133C24.9609 30.0486 26.8591 30.9405 28.6765 31.9804C28.9774 32.1932 29.3099 32.3573 29.6619 32.4667C29.9114 32.4667 32.4472 29.9968 32.4472 29.7469C32.2282 29.2131 31.9645 28.6987 31.659 28.2092C30.6854 26.5148 29.8716 24.7335 29.2283 22.8882C28.8865 21.8501 28.8737 21.7319 29.031 21.1146C29.2019 20.4183 29.2946 20.1951 29.3596 20.2738C29.4872 20.6395 29.5928 21.0126 29.6759 21.391ZM28.7564 24.0581C29.4267 25.7053 30.1945 27.3111 31.0558 28.8669L31.5158 29.655L30.5568 30.6141L29.5977 31.5731L28.691 31.0082C26.9358 30.0084 25.0987 29.1601 23.1994 28.4724C23.0022 28.4065 23.1863 28.236 24.1321 27.6052C25.5896 26.6262 26.8289 25.3565 27.7723 23.8758C28.0614 23.3894 28.3241 23.0481 28.3768 23.1008C28.533 23.4075 28.6606 23.7279 28.7577 24.0581H28.7564ZM35.5756 32.2435L36.2587 32.9267L34.577 34.6084L32.9076 36.2778L32.1849 35.5551L31.4622 34.8325L33.1044 33.1903C34.0111 32.2835 34.7738 31.5481 34.8125 31.5481C35.0865 31.7577 35.3421 31.9903 35.5765 32.2435H35.5756ZM37.8354 34.5952C36.816 35.7461 35.7279 36.8342 34.577 37.8537C34.367 37.7133 34.1731 37.5502 33.9989 37.3673L33.4998 36.881L35.1692 35.1993L36.8386 33.5176L37.3377 34.0039C37.5349 34.1726 37.7034 34.3723 37.8363 34.5952H37.8354ZM37.9273 37.9455L36.2578 39.6272L35.7307 39.0886L35.192 38.5614L36.8615 36.8797L38.5309 35.198L39.0713 35.7375L39.6099 36.2761L37.9273 37.9455ZM40.6862 37.3542C40.8686 37.5101 41.0163 37.7026 41.1198 37.9191C40.6221 38.5383 40.0821 39.1223 39.5036 39.6667L37.8873 41.2698L37.375 40.7426L36.8628 40.2155L38.4918 38.5733C39.3985 37.6665 40.1612 36.9311 40.1867 36.9311C40.3728 37.0479 40.5414 37.1905 40.6875 37.3546L40.6862 37.3542ZM41.2248 41.2299L39.5431 42.8993L39.0159 42.387L38.4887 41.8748L40.1581 40.1931L41.8399 38.5113L42.367 39.0385L42.8942 39.5657L41.2248 41.2299ZM43.8001 40.5203C43.9183 40.7044 43.6683 41.0067 42.3025 42.3862L40.6603 44.0283L40.3967 43.7647L40.1331 43.5011L41.7753 41.859C42.3116 41.2716 42.9008 40.735 43.5356 40.2559C43.6436 40.3224 43.7346 40.4131 43.8014 40.5208L43.8001 40.5203Z" fill="#222222" stroke="#222222"/>
<path d="M12.1769 3.56212C10.3258 3.75063 8.56895 4.47137 7.1188 5.63718C5.66865 6.80299 4.58729 8.36395 4.00548 10.1313C2.24512 15.4128 4.92498 21.8379 10.2724 25.1223C12.3076 26.4174 14.6661 27.1141 17.0784 27.1326C18.72 27.1883 20.3485 26.822 21.8081 26.0686C22.7437 25.659 23.5747 25.0432 24.2389 24.2674C25.0046 23.5886 25.6184 22.7558 26.0401 21.8234C26.6461 20.696 26.996 19.4489 27.065 18.1709C27.4068 14.4397 25.8433 10.4586 22.8739 7.52877C19.9678 4.65297 15.8294 3.12851 12.1769 3.56212ZM14.0295 5.04659L14.7113 5.73017L13.3973 7.031L12.0965 8.34501L10.6379 6.91283C10.1148 6.44819 9.64349 5.92838 9.23209 5.36247C9.33709 5.03386 11.6365 4.39025 12.7401 4.36389C13.2936 4.35071 13.3986 4.40298 14.0295 5.04703V5.04659ZM15.6717 4.67889C15.6274 4.78837 15.5492 4.88075 15.4485 4.94247C15.2908 5.03429 15.1726 4.9952 14.9494 4.77158L14.6472 4.46932L15.1744 4.50886C15.4612 4.53434 15.6848 4.60025 15.6717 4.67889ZM17.6688 5.13885C18.4701 5.41475 20.0337 6.24243 20.1651 6.45286C20.2178 6.5315 19.8496 6.98004 19.3637 7.45143L18.4851 8.31865L17.1974 7.031L15.8966 5.74335L16.317 5.30974C16.4644 5.14467 16.6321 4.99897 16.8161 4.87613C17.1051 4.94761 17.3897 5.03533 17.6688 5.13885ZM9.91699 7.37236L11.4805 8.94908L10.2456 10.1972C9.82594 10.6556 9.36409 11.0735 8.86614 11.4453C8.68206 11.4453 5.77858 8.47594 5.77858 8.29187C6.50936 7.37729 7.33278 6.54076 8.23571 5.79564C8.8294 6.28458 9.39099 6.81124 9.91699 7.37236ZM16.8675 9.98676C15.1981 11.708 15.4221 11.6817 13.9772 10.2504C13.5415 9.83564 13.1292 9.39696 12.7423 8.93634C13.1386 8.45945 13.5641 8.00755 14.0163 7.58324L15.2903 6.30921L16.6043 7.62322L17.9052 8.92405L16.8675 9.98676ZM21.5713 7.46418C22.45 8.20005 23.5158 9.35634 23.5158 9.5927C22.9645 10.2644 22.3532 10.8845 21.6895 11.4453C20.7881 10.6624 19.9491 9.81048 19.1801 8.89725C19.7211 8.22715 20.3435 7.62696 21.0327 7.11052C21.2283 7.2019 21.4096 7.32118 21.5709 7.46461L21.5713 7.46418ZM6.8167 10.6831L8.26207 12.1676L6.98803 13.4416L5.714 14.7292L5.03085 14.0461C4.38725 13.4152 4.33453 13.3102 4.33453 12.7453C4.33453 11.8912 5.0704 9.21092 5.30675 9.21092C5.33135 9.2118 6.01274 9.88353 6.81626 10.6835L6.8167 10.6831ZM13.3859 10.8408L14.6208 12.0757L14.279 12.5093C13.879 12.9788 13.4537 13.4261 13.005 13.8493L12.0855 14.7429L10.8374 13.5211C10.3774 13.1078 9.95935 12.6502 9.58926 12.1548C10.3388 11.2327 11.1699 10.3799 12.0723 9.60675C12.5394 9.98581 12.9783 10.3984 13.3854 10.8412L13.3859 10.8408ZM19.8369 10.854L21.085 12.1021L19.771 13.4161L18.457 14.7301L17.1715 13.442L15.8707 12.1412L17.1056 10.8799C17.5172 10.4191 17.9701 9.99688 18.4587 9.61861C18.9613 9.97935 19.4232 10.3936 19.8364 10.854H19.8369ZM24.6589 11.1958C24.9636 11.7295 25.2228 12.288 25.4338 12.8652L25.7884 13.8242L25.3416 14.2842L24.8948 14.731L23.5808 13.417L22.2668 12.103L23.1208 11.2489C23.3975 10.9203 23.7314 10.6444 24.1062 10.4344C24.3242 10.6618 24.51 10.9179 24.6584 11.1958H24.6589ZM10.1274 13.9943C10.5543 14.4104 10.9537 14.8537 11.3233 15.3214C10.5874 16.2347 9.78362 17.0912 8.91885 17.8836C8.13212 17.1967 7.38218 16.4687 6.67216 15.7028L6.30445 15.2955L7.56574 14.0215C8.26207 13.3252 8.85339 12.7602 8.87975 12.7602C8.90611 12.7602 9.45746 13.3102 10.1274 13.9943ZM16.5521 16.635L15.2512 17.9359L13.9899 16.7009C13.55 16.2816 13.1334 15.8386 12.7418 15.3737C13.1354 14.8984 13.5566 14.4466 14.0031 14.0206L15.2772 12.733L16.578 14.0338L17.8656 15.3214L16.5521 16.635ZM23.0294 14.0465L24.3035 15.3206L22.9895 16.6346L21.6754 17.9486L20.4273 16.7005C19.9689 16.2808 19.5511 15.819 19.1792 15.321C19.9435 14.4034 20.7781 13.5468 21.6754 12.7589C21.7154 12.7593 22.3199 13.337 23.0294 14.0465ZM4.80636 15.057C4.97726 15.3206 4.99044 15.4247 4.85908 15.5842C4.79212 15.674 4.70056 15.7425 4.59549 15.7814C4.47731 15.7814 4.34596 14.8878 4.45095 14.796C4.54321 14.6906 4.58275 14.7161 4.80592 15.0587L4.80636 15.057ZM26.1433 15.4774C26.1433 15.9374 26.1433 15.9506 25.8797 15.7138C25.5775 15.4379 25.5511 15.2406 25.7747 15.0174C25.9984 14.7943 26.1429 14.9665 26.1429 15.4792L26.1433 15.4774ZM19.8369 19.7867C19.4187 20.2322 18.971 20.6492 18.4969 21.0348C18.0027 20.6536 17.5372 20.2364 17.1043 19.7867L15.8303 18.5386L17.1443 17.2246L18.4583 15.9106L19.7723 17.2246L21.0863 18.5386L19.8369 19.7867ZM26.2224 18.2627C26.1438 19.2481 25.5261 21.3107 25.2897 21.3898C24.7093 20.9866 24.1799 20.5145 23.713 19.984L22.2676 18.5386L23.5817 17.2246L24.8825 15.9106L25.592 16.6069L26.3015 17.2901L26.2224 18.2627ZM7.00078 17.2114C7.42603 17.6086 7.80883 18.049 8.14301 18.5254C8.14301 18.7095 6.65854 20.2467 6.46128 20.2467C6.30357 20.2467 5.05546 17.7636 4.91092 17.1855C4.84502 16.8832 4.89774 16.7387 5.2 16.4233C5.33682 16.2561 5.51277 16.1253 5.71225 16.0424C6.18137 16.3865 6.6131 16.7789 7.00033 17.2132L7.00078 17.2114ZM13.3863 17.2378C13.807 17.6458 14.2061 18.0756 14.5817 18.5254C13.7986 19.4136 12.9605 20.2517 12.0723 21.0348C11.9146 21.0348 9.58925 18.6186 9.62835 18.4868C10.3563 17.603 11.1653 16.7892 12.0446 16.056C12.536 16.3971 12.986 16.7943 13.3854 17.2395L13.3863 17.2378ZM10.246 20.4567L11.4678 21.718L10.6928 22.5193C9.78607 23.4652 9.70744 23.5297 9.47108 23.5297C8.97664 23.1831 8.52274 22.782 8.11797 22.3339L6.9485 21.1513L7.553 20.4923C7.89479 20.1246 8.29985 19.6909 8.44658 19.52C8.5679 19.3862 8.71551 19.2788 8.88019 19.2046C9.38279 19.5676 9.84093 19.9884 10.2452 20.4584L10.246 20.4567ZM16.6052 20.4699L17.8793 21.7439L16.5916 23.0315L15.304 24.3192L14.3186 23.347C13.7799 22.8198 13.1886 22.2302 13.0045 22.033L12.6891 21.6784L13.924 20.4435C14.3397 19.9999 14.783 19.5831 15.2512 19.1954C15.2908 19.1972 15.8948 19.7753 16.6043 20.4712L16.6052 20.4699ZM23.3058 20.7589C25.107 22.5602 25.0666 22.2966 23.6476 23.7415C22.2944 25.1078 22.439 25.1341 20.6914 23.3738C20.1574 22.8596 19.6527 22.3159 19.1797 21.7452C19.951 20.8384 20.7851 19.987 21.6759 19.1971C21.7154 19.1971 22.4513 19.9067 23.3053 20.7607L23.3058 20.7589ZM13.0972 23.2947C13.5366 23.7145 13.9533 24.1576 14.3454 24.6219L14.6089 24.9896L14.2412 25.385C14.0987 25.5576 13.9128 25.689 13.7026 25.7659C12.783 25.5005 11.9003 25.1208 11.075 24.6359L10.221 24.1628L11.1146 23.256C11.6137 22.757 12.0341 22.3493 12.0604 22.3493C12.0868 22.3493 12.5586 22.7842 13.0964 23.2965L13.0972 23.2947ZM19.9555 23.8069C20.4815 24.2745 20.9491 24.8039 21.3481 25.3837C21.2036 25.5937 19.141 26.1586 18.2079 26.2377L17.2752 26.3164L16.5657 25.6332L15.8694 24.9501L17.157 23.6492C17.8665 22.9266 18.4578 22.3484 18.471 22.3484C18.4842 22.3484 19.1401 23.0074 19.9546 23.81L19.9555 23.8069ZM15.5671 25.8432C16.1189 26.1977 15.8035 26.3295 14.989 26.0796C14.8444 26.04 14.8444 25.9877 14.9758 25.83C15.1722 25.5827 15.1722 25.5827 15.5667 25.8454L15.5671 25.8432Z" fill="#222222" stroke="#222222" stroke-width="2"/>
</svg>
