<svg width="53" height="53" viewBox="0 0 53 53" fill="none" xmlns="http://www.w3.org/2000/svg">
<path d="M45.0757 7.70199C40.1153 2.73818 33.5195 0.00302853 26.4921 0C12.011 0 0.226361 11.7809 0.220564 26.2613C0.218876 30.89 1.4283 35.4083 3.72708 39.3911L0 53L13.9268 49.3482C17.7639 51.4408 22.0843 52.5435 26.4808 52.5453H26.492H26.4921C40.9708 52.5453 52.7572 40.7623 52.7634 26.2826C52.7658 19.2647 50.0355 12.6661 45.0757 7.70199ZM26.4921 48.1097H26.4836C22.5647 48.1076 18.7218 47.0555 15.3698 45.0665L14.5721 44.5936L6.30761 46.7604L8.51411 38.7055L7.99437 37.8798C5.80842 34.404 4.65442 30.3874 4.65606 26.263C4.66087 14.2274 14.4558 4.4358 26.5003 4.4358C32.333 4.43823 37.8149 6.7117 41.9378 10.8375C46.0605 14.9632 48.3292 20.4478 48.3275 26.2807C48.3224 38.3168 38.5271 48.1097 26.4921 48.1097Z" fill="#E0E0E0"/>
<path d="M1.20604 51.49L4.76288 38.5028C2.56853 34.7019 1.41458 30.3896 1.41596 25.9732C1.42171 12.1545 12.6682 0.912117 26.4865 0.912117C33.1933 0.915146 39.4879 3.52522 44.2207 8.26241C48.9544 12.9995 51.5598 19.2963 51.5571 25.9928C51.5513 39.8118 40.3042 51.0553 26.4875 51.0553C26.4865 51.0553 26.4882 51.0553 26.4875 51.0553H26.4764C22.2807 51.0539 18.158 50.0007 14.4964 48.0051L1.20604 51.49Z" fill="url(#paint0_linear_952_1666)"/>
<path fill-rule="evenodd" clip-rule="evenodd" d="M20 15.1121C19.5139 14.0315 19.0022 14.0099 18.5398 13.991C18.1616 13.9747 17.7286 13.9757 17.2963 13.9757C16.8636 13.9757 16.1606 14.1383 15.566 14.7876C14.9711 15.437 13.2946 17.0066 13.2946 20.1991C13.2946 23.3919 15.6201 26.4769 15.9442 26.9102C16.2687 27.3429 20.4333 34.1037 27.0288 36.7046C32.5102 38.8662 33.6257 38.4362 34.8154 38.328C36.0052 38.2199 38.6545 36.7587 39.1953 35.2434C39.7361 33.7284 39.7361 32.4298 39.5739 32.1584C39.4116 31.888 38.979 31.7257 38.33 31.4013C37.681 31.0768 34.491 29.5067 33.8961 29.2904C33.3012 29.0741 32.8685 28.9659 32.4359 29.6156C32.0032 30.2646 30.7604 31.7257 30.3818 32.1584C30.0032 32.592 29.6247 32.6461 28.9757 32.3216C28.3267 31.9961 26.2368 31.3117 23.7576 29.1011C21.8286 27.3813 20.5262 25.2573 20.1477 24.6077C19.7691 23.9587 20.1071 23.6072 20.4326 23.2837C20.724 22.993 21.0816 22.5262 21.4061 22.1473C21.7299 21.7684 21.838 21.498 22.0543 21.0653C22.2707 20.632 22.1625 20.2531 22.0003 19.9286C21.838 19.6041 20.5769 16.3952 20 15.1121Z" fill="white"/>
<path d="M44.8612 7.61854C39.9578 2.71171 33.4377 0.00800801 26.491 0.00493622C12.1761 0.00493622 0.526728 11.6506 0.520974 25.9648C0.519287 30.5404 1.71482 35.0068 3.98722 38.9439L0.302963 52.3965L14.0699 48.7866C17.863 50.8552 22.1337 51.9453 26.4798 51.9469H26.4909H26.491C40.8035 51.9469 52.4545 40.2992 52.4606 25.9857C52.463 19.0485 49.764 12.5257 44.8612 7.61854ZM26.491 47.5624H26.4825C22.6087 47.5603 18.8098 46.5203 15.4963 44.5541L14.7077 44.0866L6.53815 46.2286L8.7193 38.2662L8.20553 37.4499C6.04467 34.0141 4.90391 30.0435 4.9056 25.9665C4.91031 14.069 14.5928 4.3899 26.4991 4.3899C32.2648 4.39228 37.6837 6.63967 41.7594 10.7181C45.8347 14.7965 48.0774 20.218 48.0757 25.9841C48.0706 37.8819 38.3877 47.5624 26.491 47.5624Z" fill="white"/>
<defs>
<linearGradient id="paint0_linear_952_1666" x1="26.3816" y1="51.49" x2="26.3816" y2="0.912201" gradientUnits="userSpaceOnUse">
<stop stop-color="#20B038"/>
<stop offset="1" stop-color="#60D66A"/>
</linearGradient>
</defs>
</svg>
